<?xml version="1.0" standalone="no"?>
<!DOCTYPE svg PUBLIC "-//W3C//DTD SVG 1.1//EN" "http://www.w3.org/Graphics/SVG/1.1/DTD/svg11.dtd" >
<svg xmlns="http://www.w3.org/2000/svg">
<metadata></metadata>
<defs>
<font id="ferrumextra-condensed" horiz-adv-x="944" >
<font-face units-per-em="2048" ascent="1729" descent="-319" />
<missing-glyph horiz-adv-x="516" />
<glyph horiz-adv-x="0" />
<glyph horiz-adv-x="682" />
<glyph unicode=" "  horiz-adv-x="516" />
<glyph unicode="&#x09;" horiz-adv-x="516" />
<glyph unicode="&#xa0;" horiz-adv-x="516" />
<glyph unicode="!" horiz-adv-x="688" d="M225 1548q-9 84 22.5 119t96.5 35t96.5 -35t22.5 -119q-32 -291 -66 -1173l-4 -4h-98l-4 4q-31 810 -66 1173zM229 94q0 -47 34 -80.5t81 -33.5t81 33.5t34 80.5t-34 81t-81 34t-81 -34t-34 -81z" />
<glyph unicode="&#x22;" horiz-adv-x="716" d="M59 1397v4q45 72 59.5 117.5t14.5 107.5q0 39 -15.5 71t-41.5 44l-4 4v35q40 12 78 12q53 0 87.5 -34.5t34.5 -104.5q0 -78 -54 -152.5t-138 -126.5zM346 1397v4q45 72 59.5 117.5t14.5 107.5q0 39 -16 71t-42 44l-4 4v35q40 12 78 12q54 0 88.5 -35t34.5 -104 q0 -78 -54 -152.5t-138 -126.5z" />
<glyph unicode="#" d="M147 500l11 131l4 4h172l24 455h-168l-4 4l9 131l4 4h168l28 495l4 5h54l4 -5l-29 -495h141l29 495l4 5h53l4 -5l-28 -495h184l4 -4l-8 -131l-4 -4h-184l-25 -455h180l4 -4l-10 -131l-4 -4h-180l-31 -541l-4 -4h-53l-4 4l30 541h-141l-31 -541l-4 -4h-53l-4 4l31 541 h-172zM395 635h142l24 455h-141z" />
<glyph unicode="$" d="M160 106q2 86 2 324h51l4 -2q21 -146 62 -229q55 -105 170 -105q66 0 109.5 58t43.5 178q0 88 -38.5 189.5t-114.5 197.5q-139 173 -208 305.5t-69 261.5q0 167 70 257t180 116v248l4 4h74l4 -4v-248q128 0 215 -74q-2 -86 -2 -330h-51l-4 2q-10 150 -54 234 q-25 50 -58.5 73t-82.5 23q-58 0 -89.5 -55t-31.5 -156q0 -88 27.5 -166.5t62.5 -129t94 -117.5q135 -153 195.5 -280t60.5 -253q0 -86 -23.5 -155t-64.5 -115t-89 -76t-105 -47v-264l-4 -4h-74l-4 4v254q-75 0 -146 21.5t-116 59.5z" />
<glyph unicode="%" d="M43 1303q0 173 64 276.5t176 103.5q73 0 127.5 -49.5t81 -124t26.5 -159.5q0 -163 -63 -263t-181 -100q-106 0 -168.5 87t-62.5 229zM119 -18l665 1773l4 2l54 -18l2 -4l-666 -1774l-4 -2l-53 18zM190 1311q0 -264 93 -264q88 0 88 284q0 289 -92 289q-89 0 -89 -309z M426 291q0 173 64 277t176 104q73 0 127.5 -49.5t81 -124.5t26.5 -160q0 -163 -63 -263t-181 -100q-106 0 -168.5 87t-62.5 229zM573 299q0 -264 93 -264q88 0 88 284q0 289 -92 289q-89 0 -89 -309z" />
<glyph unicode="&#x26;" horiz-adv-x="1064" d="M143 461q0 145 56.5 290.5t138.5 245.5q-48 97 -83.5 216t-35.5 194q0 137 67.5 217t180.5 80q105 0 167 -74t62 -174q0 -220 -215 -399l234 -563q45 264 45 380q0 64 -55 89l-3 4v32q57 -4 129 -4q64 0 121 4v-32l-2 -4q-36 -6 -62 -34t-32 -67q-34 -193 -98 -477 q56 -174 131 -279q34 -51 88 -73l2 -4v-33q-57 4 -281 4l-4 4q-18 78 -32 121q-70 -150 -228 -150q-43 0 -83.5 16t-79 53t-66.5 91.5t-45 138.5t-17 187zM315 600q0 -213 56 -336t129 -123q46 0 74.5 21t50.5 69l-252 680q-34 -67 -46 -137t-12 -174zM383 1473 q0 -159 72 -343q37 55 60.5 129.5t23.5 145.5q0 102 -20 164.5t-60 62.5q-37 0 -56.5 -42.5t-19.5 -116.5z" />
<glyph unicode="'" horiz-adv-x="430" d="M59 1397v4q45 72 59.5 117.5t14.5 107.5q0 39 -15.5 71t-41.5 44l-4 4v35q40 12 78 12q53 0 87.5 -34.5t34.5 -104.5q0 -78 -54 -152.5t-138 -126.5z" />
<glyph unicode="(" horiz-adv-x="708" d="M209 840q0 186 26 338.5t68 253t98.5 169t116 98.5t121.5 30h39l4 -5v-32l-4 -4h-21q-78 0 -143.5 -49t-116.5 -148t-79.5 -265.5t-28.5 -385.5t28.5 -385.5t79.5 -265.5t116.5 -148t143.5 -49h21l4 -4v-33l-4 -4h-39q-62 0 -121.5 30t-116 98.5t-98.5 169t-68 253 t-26 338.5z" />
<glyph unicode=")" horiz-adv-x="708" d="M27 -12l4 4h20q78 0 143.5 49t117 148t80 265.5t28.5 385.5t-28.5 385.5t-80 265.5t-117 148t-143.5 49h-20l-4 4v32l4 5h39q62 0 121.5 -30t116 -98.5t98.5 -169t68 -253t26 -338.5t-26 -338.5t-68 -253t-98.5 -169t-116 -98.5t-121.5 -30h-39l-4 4v33z" />
<glyph unicode="*" horiz-adv-x="847" d="M74 1296l2 9q13 3 24 10q13 5 23 2t14 -14q6 -12 21 -15q32 11 61 37l14 -4l3 -4q5 -25 23 -42t60 -36l66 -29l2 -2l-4 -16h-4l-70 16q-46 9 -70.5 6t-43.5 -20l-2 -2l-17 4q-4 32 -26 68q-14 6 -25 0q-11 -7 -21 -4q-11 4 -16 16q-6 15 -14 20zM203 920q-2 12 4 22 q5 8 20 8q10 2 19 15q-3 40 -17 69l11 15h2q27 -3 48.5 8.5t53.5 46.5l47 55h2l13 -10l2 -2l-39 -62q-23 -40 -28 -64t7 -48v-4l-10 -13q-36 3 -72 -6q-9 -12 -6 -22q0 -20 -2 -23q-8 -7 -20 -10q-18 0 -27 -6l-6 4q3 12 -2 27zM356 1409v16q27 15 56 48q0 13 -9 22 q-10 10 -10 18q0 13 10 21q11 11 17 20h8q8 -12 16 -20q11 -8 11 -21q0 -7 -11 -18q-8 -8 -8 -22q29 -33 56 -48v-16l-3 -2q-23 -12 -33.5 -35t-15.5 -69l-6 -72l-2 -2h-16l-2 2l-6 72q-4 46 -15.5 69t-34.5 35zM408 1188q0 -6 5 -11.5t11 -5.5t11 5.5t5 11.5t-5 11t-11 5 t-11 -5t-5 -11zM440 1147l37 -62q25 -40 30 -64.5t-7 -47.5v-4l8 -13q38 3 74 -6q9 -12 6 -22q-4 -15 2 -23q8 -7 20 -10q15 0 27 -6l6 4q-3 11 0 27q3 15 -2 22q-5 8 -20 8q-10 2 -19 15q0 36 16 69l-10 15h-2q-27 -3 -48.5 8.5t-53.5 46.5l-47 55h-2l-15 -10v-2zM461 1208 l4 -16h4l70 16q44 9 69.5 6t44.5 -20l2 -2l17 4q4 32 26 68q14 6 25 0q11 -7 20 -4q12 4 17 16q6 15 14 20l-2 9q-13 3 -24 10q-13 5 -23 2t-14 -14q-6 -12 -21 -15q-32 11 -61 37l-15 -4l-2 -4q-5 -25 -23 -42t-61 -36l-67 -29v-2z" />
<glyph unicode="+" horiz-adv-x="880" d="M63 569v49l5 5h342v364l4 4h53l4 -4v-364h342l4 -5v-49l-4 -4h-342v-360l-4 -4h-53l-4 4v360h-342z" />
<glyph unicode="," horiz-adv-x="380" d="M53 -109q44 71 58 117t14 109q0 40 -13.5 70t-39.5 42l-4 4v37q43 13 88 13q57 0 92 -40t35 -112q0 -77 -59.5 -150.5t-145.5 -119.5l-25 26v4z" />
<glyph unicode="-" horiz-adv-x="591" d="M106 494q14 36 23 75q3 9 14 9h283q33 0 51 4l8 -7q-12 -30 -22 -75q-5 -8 -14 -8h-283q-28 0 -51 -5z" />
<glyph unicode="." horiz-adv-x="425" d="M98 94q0 47 34 81t81 34t81 -34t34 -81t-34 -80.5t-81 -33.5t-81 33.5t-34 80.5z" />
<glyph unicode="/" horiz-adv-x="587" d="M-18 -20l565 1775l4 2l53 -16l2 -4l-565 -1776l-4 -2l-53 16z" />
<glyph unicode="0" d="M92 819q0 426 101.5 655.5t287.5 229.5q177 0 274 -227.5t97 -616.5q0 -430 -105 -657.5t-292 -227.5q-173 0 -268 214.5t-95 629.5zM305 860q0 -184 4 -274q20 98 52 171.5t106 190.5q162 258 149 373q-16 156 -52 234.5t-101 78.5q-86 0 -122 -176.5t-36 -597.5z M321 468.5q-5 -51.5 1 -103.5q24 -184 58 -252t95 -68q93 0 128.5 177t35.5 597q0 197 -8 342q-31 -176 -137 -336q-85 -129 -126.5 -217t-46.5 -139.5z" />
<glyph unicode="1" d="M268 1526v28l2 5q192 47 336 151h6l19 -8l2 -6q-17 -171 -17 -856q0 -608 15 -719q10 -69 76 -88l2 -4v-33q-57 4 -181 4q-123 0 -180 -4v33l2 4q66 19 76 88q14 103 14 719q0 394 -4 505.5t-16 129.5q-29 38 -150 47z" />
<glyph unicode="2" d="M104 0q72 124 113.5 203t97.5 200q161 344 224 531t63 340q0 140 -52 230.5t-142 90.5q-81 0 -127 -73q-26 -42 -31 -121l-4 -2h-51q-9 115 -9 170q135 135 324 135q132 0 218.5 -100.5t86.5 -241.5q0 -123 -56.5 -266t-226.5 -457q-130 -239 -223 -473q223 0 367 6 q53 3 79.5 27t43.5 90l4 2h51q-23 -155 -25 -295q-125 4 -352 4q-243 0 -368 -4z" />
<glyph unicode="3" d="M115 80q0 91 12 201h51l4 -2q16 -89 41 -138q51 -94 160 -94q100 0 156.5 102.5t56.5 266.5q0 176 -58.5 274.5t-211.5 147.5l-4 4l-9 43l2 6q136 67 198 161t62 242q0 73 -19 139.5t-63 114t-104 47.5q-81 0 -127 -73q-24 -40 -31 -121l-4 -2h-51q-8 73 -8 170 q70 70 141.5 102.5t177.5 32.5q86 0 155 -51.5t104.5 -130t35.5 -164.5q0 -147 -92 -270t-237 -185q113 -21 196 -87.5t123.5 -157.5t40.5 -195q0 -218 -128.5 -353t-328.5 -135q-78 0 -134.5 24.5t-106.5 80.5z" />
<glyph unicode="4" d="M70 487q134 253 313 635t268 598h6l39 -8l2 -6q-14 -346 -14 -1094q105 0 162 6l10 -8q-5 -47 -22 -112q-7 -17 -41 -21q-56 3 -111 0q0 -256 14 -356q10 -69 76 -88l2 -4v-33q-57 4 -180 4t-180 -4v33l2 4q66 19 76 88q14 100 14 356q-236 7 -424 0zM215 614 q148 -9 293 0l-2 410q0 121 14 225z" />
<glyph unicode="5" d="M104 92q0 70 13 189h51l4 -2q12 -90 39 -136q33 -53 65.5 -74.5t83.5 -21.5q95 0 155 109.5t60 314.5q0 206 -83 338t-228 147l-71 5l-5 4q23 351 19 718q61 -4 270 -4q174 0 240 4l2 -4q-8 -102 -8 -245h-52l-4 2q-20 84 -84 90q-99 6 -284 6q-11 -240 0 -492 q242 -15 371.5 -154.5t129.5 -357.5q0 -242 -127.5 -397.5t-314.5 -155.5q-156 0 -242 117z" />
<glyph unicode="6" d="M106 659q0 510 115.5 777.5t345.5 267.5q64 0 111 -20t90 -64q-8 -65 -8 -221h-51l-4 2q-13 103 -41 153q-44 78 -117 78q-85 0 -136.5 -71t-79 -232t-34.5 -438q72 98 207 98q144 0 231.5 -136.5t87.5 -358.5q0 -228 -109 -373.5t-280 -145.5q-150 0 -239 175.5 t-89 508.5zM299 723q0 -335 46 -506.5t130 -171.5q64 0 110 99.5t46 289.5q0 220 -51.5 339.5t-130.5 119.5q-56 0 -103 -43.5t-47 -126.5z" />
<glyph unicode="7" d="M117 1679l2 4q66 -4 424 -4q262 0 323 4l4 -4q-226 -567 -553 -1679l-4 -4q-37 0 -77 -4q-7 0 -14 8t-5 16q72 189 232.5 676.5t261.5 816.5q-338 0 -437 -6q-75 -6 -94 -110l-4 -2h-51q0 186 -8 288z" />
<glyph unicode="8" d="M121 362q0 314 264 553q-107 131 -154 223t-47 195q0 173 87 272t233 99q123 0 203.5 -89.5t80.5 -228.5q0 -229 -231 -419q266 -322 266 -553q0 -210 -104.5 -324.5t-269.5 -114.5q-148 0 -238 102.5t-90 284.5zM307 438q0 -200 38 -296.5t120 -96.5q75 0 120.5 78 t45.5 237q0 213 -193 488q-72 -90 -101.5 -183.5t-29.5 -226.5zM352 1393q0 -179 154 -369q127 135 127 311q0 147 -39 222t-105 75q-68 0 -102.5 -65.5t-34.5 -173.5z" />
<glyph unicode="9" d="M121 1186q0 228 109 373t280 145q150 0 239 -175.5t89 -508.5q0 -510 -115.5 -777.5t-345.5 -267.5q-65 0 -111.5 19.5t-89.5 64.5q8 98 8 222h52l4 -2q13 -104 41 -154q44 -78 116 -78q85 0 136 70.5t78.5 231t35.5 439.5q-72 -98 -207 -98q-144 0 -231.5 137t-87.5 359 zM313 1245q0 -219 52 -339t131 -120q56 0 102.5 43.5t46.5 126.5q0 334 -46.5 506t-129.5 172q-64 0 -110 -99.5t-46 -289.5z" />
<glyph unicode=":" horiz-adv-x="552" d="M162 168q0 47 33.5 81t80.5 34t81 -34t34 -81t-34 -81t-81 -34t-80.5 34t-33.5 81zM162 963q0 47 33.5 80.5t80.5 33.5t81 -33.5t34 -80.5t-34 -81t-81 -34t-80.5 34t-33.5 81z" />
<glyph unicode=";" horiz-adv-x="552" d="M137 -109q44 71 58 117t14 109q0 40 -13.5 70t-39.5 42l-4 4v37q43 13 88 13q57 0 92 -40t35 -112q0 -77 -59.5 -150.5t-145.5 -119.5l-25 26v4zM162 963q0 47 33.5 80.5t80.5 33.5t81 -33.5t34 -80.5t-34 -81t-81 -34t-80.5 34t-33.5 81z" />
<glyph unicode="&#x3c;" horiz-adv-x="913" d="M135 735v4q236 221 613 613h4l34 -35v-4q-309 -309 -546 -576q211 -240 546 -575v-4l-34 -35h-4q-333 346 -613 612z" />
<glyph unicode="=" horiz-adv-x="751" d="M135 432q14 34 23 76q3 8 14 8h365q33 0 51 4l8 -6q-14 -34 -23 -76q-5 -8 -14 -8h-364q-34 0 -52 -4zM156 678q12 29 22 76q3 8 15 8h364q33 0 51 4l8 -6q-12 -29 -22 -76q-5 -8 -14 -8h-365q-33 0 -51 -4z" />
<glyph unicode="&#x3e;" horiz-adv-x="913" d="M127 158v4q323 323 547 575q-254 283 -547 576v4l35 35h4q358 -375 612 -613v-4q-297 -282 -612 -612h-4z" />
<glyph unicode="?" horiz-adv-x="780" d="M104 1579q59 68 123 96.5t152 28.5q134 0 217.5 -99t83.5 -247q0 -107 -41 -220t-137 -278q-79 -137 -106.5 -225.5t-33.5 -214.5l-4 -4h-67l-4 4q7 117 23 192.5t52 169.5q71 184 97 284.5t26 203.5q0 147 -45 236t-123 89t-118 -73q-25 -47 -31 -121l-4 -2h-51 q0 79 -9 180zM213 94q0 -47 34 -80.5t81 -33.5t80.5 33.5t33.5 80.5t-33.5 81t-80.5 34t-81 -34t-34 -81z" />
<glyph unicode="@" horiz-adv-x="1732" d="M152 492q0 188 69 357t186.5 290t279.5 191.5t341 70.5q133 0 250.5 -52.5t197.5 -139.5t126.5 -203t46.5 -240q0 -143 -43 -257t-118.5 -186.5t-174.5 -110.5t-215 -38q-136 0 -193 -4v31l2 4q47 11 47 61q0 46 -10 254q-54 4 -94 4q-13 0 -94 -6q-54 -133 -80 -223 q-20 -72 20 -90l2 -4v-31q-37 4 -106 4q-55 0 -92 -4v31l2 4q26 8 41.5 27.5t34.5 60.5q198 462 313 774l6 8q81 42 147 103h19q17 -423 55 -861q3 -40 17 -55.5t49 -15.5q165 0 270 133.5t105 333.5q0 121 -37.5 230t-107 193.5t-177.5 134.5t-240 50q-147 0 -284 -62 t-238.5 -166t-163 -249.5t-61.5 -304.5q0 -287 163 -452t435 -165q121 0 227 31.5t232 99.5h6l24 -45l-2 -6q-132 -86 -254.5 -123t-279.5 -37q-123 0 -239 45.5t-207.5 127.5t-147 206.5t-55.5 270.5zM778 582q46 -4 78 -4t86 4l-16 364q-72 -163 -148 -364z" />
<glyph unicode="A" horiz-adv-x="1013" d="M57 -4v33l2 4q67 20 84 94q53 231 94.5 455t182.5 1028l10 10q86 48 139 96h27q76 -528 135.5 -884.5t132.5 -710.5q14 -76 84 -88l2 -4v-33q-57 4 -188 4q-109 0 -166 -4v33l2 4q52 7 52 58q0 6 -1 13q-35 297 -92 592q-62 4 -115 4q-38 0 -100 -4q-63 -348 -92 -585 q-4 -37 10.5 -53.5t50.5 -24.5l2 -4v-33q-57 4 -116 4q-83 0 -140 -4zM350 770q66 -4 92 -4q33 0 107 4q-42 238 -92 645q-61 -381 -107 -645z" />
<glyph unicode="B" horiz-adv-x="985" d="M147 -4v33l3 4q65 19 75 88q15 111 15 719t-15 719q-10 69 -75 88l-3 4v32q57 -4 181 -4q88 0 182 4h16q80 1 144 -27q70 -30 111.5 -86t62 -126t20.5 -152q0 -162 -74.5 -277.5t-197.5 -135.5q124 -14 205.5 -118t81.5 -276q1 -237 -111 -367q-105 -122 -265 -122h-20 q-82 4 -155 4q-124 0 -181 -4zM416 829q0 -409 2 -528.5t10 -179.5q6 -35 22 -49.5t46 -14.5q180 0 180 406q0 366 -207 366h-53zM416 887h55q94 0 142.5 98.5t48.5 282.5q0 346 -189 346h-49q-8 -159 -8 -727z" />
<glyph unicode="C" horiz-adv-x="909" d="M98 819q0 211 35.5 381t98 279t145.5 167t180 58q153 0 256 -92q-2 -86 -2 -314h-51l-4 2q-15 134 -58 216q-30 60 -61 86t-88 26q-56 0 -98 -38.5t-74.5 -125t-49 -238t-16.5 -366.5q0 -234 17 -395t51.5 -250t78 -126.5t103.5 -37.5q48 0 79 25.5t60 83.5q42 79 56 219 l4 2h51q0 -161 4 -313q-42 -42 -115.5 -67.5t-162.5 -25.5q-70 0 -133 30t-119.5 96t-97.5 163t-65 239t-24 316z" />
<glyph unicode="D" horiz-adv-x="1038" d="M147 -4v33l3 4q65 19 75 88q15 111 15 719t-15 719q-10 69 -75 88l-3 4v32q57 -4 181 -4q100 0 170 4h18q193 -1 306 -181q118 -190 118 -589q0 -202 -26 -363t-70.5 -265.5t-107 -172.5t-131.5 -95q-56 -22 -120 -22q-14 0 -28 1q-53 4 -129 4q-124 0 -181 -4zM416 840 q0 -500 8 -703q3 -78 82 -78q53 0 92 40t69 132.5t45 256.5t15 401q0 206 -15.5 350.5t-46.5 227t-72 119t-97 36.5q-42 0 -76 -6q-4 -82 -4 -776z" />
<glyph unicode="E" horiz-adv-x="929" d="M147 -4v33l3 4q65 19 75 88q15 111 15 719t-15 719q-10 69 -75 88l-3 4v32q57 -4 181 -4q303 0 430 4q0 -241 12 -471h-51l-4 2q-25 189 -76 289q-30 58 -68.5 84.5t-97.5 26.5h-49q-8 -159 -8 -742h67q69 0 95 60q24 55 38 176l5 2h51q-4 -94 -4 -266t4 -266h-51l-5 2 q-14 121 -38 176q-26 59 -95 59h-67q0 -541 10 -678q5 -71 90 -71q50 0 80.5 24t60.5 82q50 98 76 293l4 2h51q-12 -230 -12 -471q-121 4 -448 4q-124 0 -181 -4z" />
<glyph unicode="F" horiz-adv-x="874" d="M147 -4v33l3 4q65 19 75 88q15 111 15 719t-15 719q-10 69 -75 88l-3 4v32q57 -4 181 -4q303 0 430 4q0 -241 12 -471h-51l-4 2q-25 189 -76 289q-30 58 -68.5 84.5t-97.5 26.5h-49q-8 -159 -8 -742h67q69 0 95 60q24 55 38 176l5 2h51q-4 -94 -4 -266t4 -266h-51l-5 2 q-14 121 -38 176q-26 59 -95 59h-67q0 -591 14 -694q10 -69 76 -88l2 -4v-33q-57 4 -180 4q-124 0 -181 -4z" />
<glyph unicode="G" horiz-adv-x="993" d="M98 819q0 419 128.5 652t328.5 233q151 0 254 -92q-2 -86 -2 -314h-51l-4 2q-15 134 -58 216q-30 61 -60.5 86.5t-86.5 25.5t-97.5 -38.5t-73 -125t-47.5 -238t-16 -366.5q0 -234 16 -395t47.5 -250t71.5 -126.5t95 -37.5q38 0 69 18.5t31 47.5q0 287 -2 370.5t-10 145.5 q-12 78 -66 98l-2 4v33q57 -4 150 -4q102 0 159 4v-33l-2 -4q-28 -17 -36 -86q-15 -149 -15 -539q0 -20 10 -40l2 -7v-20q-63 -29 -145.5 -46.5t-157.5 -17.5q-70 0 -132 28.5t-117.5 92.5t-95 160t-62.5 240t-23 323z" />
<glyph unicode="H" horiz-adv-x="1171" d="M147 -4v33l3 4q65 19 75 88q15 111 15 719t-15 719q-10 69 -75 88l-3 4v32q57 -4 181 -4q123 0 180 4v-32l-2 -4q-66 -19 -76 -88q-14 -100 -14 -664q92 -6 170 -6t170 6q0 557 -15 664q-10 69 -75 88l-2 4v32q57 -4 180 -4t180 4v-32l-2 -4q-66 -19 -76 -88 q-14 -103 -14 -719t14 -719q10 -69 76 -88l2 -4v-33q-57 4 -180 4t-180 -4v33l2 4q65 19 75 88q15 111 15 696q-91 6 -170 6q-78 0 -170 -6q0 -593 14 -696q10 -69 76 -88l2 -4v-33q-57 4 -180 4q-124 0 -181 -4z" />
<glyph unicode="I" horiz-adv-x="655" d="M147 -4v33l3 4q65 19 75 88q15 111 15 719t-15 719q-10 69 -75 88l-3 4v32q57 -4 181 -4q123 0 180 4v-32l-2 -4q-66 -19 -76 -88q-14 -103 -14 -719t14 -719q10 -69 76 -88l2 -4v-33q-57 4 -180 4q-124 0 -181 -4z" />
<glyph unicode="J" horiz-adv-x="688" d="M111 -139l2 6q89 57 127 135t47 234q6 111 6 598q0 622 -14 725q-10 69 -76 88l-2 4v32q57 -4 180 -4t180 4v-32l-2 -4q-66 -19 -76 -88q-14 -103 -14 -719q0 -312 6 -420q3 -42 3 -81q0 -195 -72 -311q-85 -140 -275 -202l-4 2z" />
<glyph unicode="K" horiz-adv-x="1030" d="M147 -4v33l3 4q65 19 75 88q15 111 15 719t-15 719q-10 69 -75 88l-3 4v32q57 -4 181 -4q123 0 180 4v-32l-2 -4q-66 -19 -76 -88q-14 -96 -14 -678q229 414 323 680q7 21 7 38q0 31 -25 48l-2 4v32q57 -4 117 -4q74 0 131 4v-32l-2 -4q-60 -21 -107 -93 q-147 -243 -295 -575q201 -545 350 -848q21 -40 51 -66t58 -32l2 -4v-33q-57 4 -313 4l-4 4q-105 328 -291 823q3 -629 14 -706q10 -69 76 -88l2 -4v-33q-57 4 -180 4q-124 0 -181 -4z" />
<glyph unicode="L" horiz-adv-x="888" d="M147 -4v33l3 4q65 19 75 88q15 111 15 719t-15 719q-10 69 -75 88l-3 4v32q57 -4 181 -4q123 0 180 4v-32l-2 -4q-66 -19 -76 -88q-14 -103 -14 -719q0 -566 10 -703q5 -71 90 -71q50 0 80.5 24t60.5 82q50 98 76 293l4 2h51q-12 -230 -12 -471q-121 4 -448 4 q-124 0 -181 -4z" />
<glyph unicode="M" horiz-adv-x="1413" d="M133 -4v33l2 4q66 19 76 88q14 103 14 719v620q0 75 -29.5 125.5t-60.5 61.5l-2 4v32q57 -4 184 -4h97q40 -209 89 -408t195 -753q154 640 203 853.5t64 307.5q244 0 301 4v-32l-2 -4q-66 -19 -76 -88q-14 -103 -14 -719t14 -719q10 -69 76 -88l2 -4v-33q-57 4 -181 4 q-123 0 -180 -4v33l2 4q66 19 76 88q14 103 14 719q0 498 7 594q-85 -288 -164 -633q-104 -446 -178 -817l-5 -2h-32l-4 2q-123 647 -316 1331q6 -254 6 -475q0 -608 15 -719q10 -69 75 -88l2 -4v-33q-57 4 -135 4t-135 -4z" />
<glyph unicode="N" horiz-adv-x="1028" d="M135 -4v33l2 4q66 19 76 88q14 103 14 719v620q0 75 -29.5 125.5t-60.5 61.5l-2 4v32q57 -4 184 -4h80q21 -95 63.5 -221.5t172.5 -476.5q72 -190 100 -342q-6 105 -6 201q0 616 -14 719q-10 69 -76 88l-2 4v32q57 -4 135 -4t135 4v-32l-2 -4q-66 -19 -76 -88 q-14 -103 -14 -719q0 -617 4 -865h-33l-4 2q-261 782 -475 1338q6 -254 6 -475q0 -608 15 -719q10 -69 75 -88l3 -4v-33q-57 4 -136 4q-78 0 -135 -4z" />
<glyph unicode="O" horiz-adv-x="980" d="M98 819q0 426 105 655.5t297 229.5q180 0 281.5 -223t101.5 -621q0 -435 -110 -660t-300 -225q-176 0 -275.5 212t-99.5 632zM311 860q0 -320 18.5 -496.5t56.5 -246.5t106 -70q98 0 138 178.5t40 593.5q0 430 -40.5 621.5t-150.5 191.5q-92 0 -130 -175t-38 -597z" />
<glyph unicode="P" horiz-adv-x="925" d="M147 -4v33l3 4q65 19 75 88q15 111 15 719t-15 719q-10 69 -75 88l-3 4v32q57 -4 181 -4q88 0 182 4h16q80 0 146 -27q72 -30 116 -84t66.5 -123.5t22.5 -150.5q0 -103 -32 -188.5t-86.5 -142.5t-123.5 -92t-148 -46q-17 14 -26 39q-3 13 12 21q106 35 153.5 124.5 t47.5 260.5q0 172 -54 256t-147 84h-49q-8 -159 -8 -764q0 -626 14 -729q10 -69 76 -88l2 -4v-33q-57 4 -180 4q-124 0 -181 -4z" />
<glyph unicode="Q" horiz-adv-x="1005" d="M98 819q0 426 105 655.5t297 229.5q180 0 281.5 -223t101.5 -621q0 -197 -22.5 -351.5t-64.5 -256t-95.5 -164t-120.5 -92.5q30 12 63 12q95 0 207.5 -33t271.5 -110q179 -88 320 -135t217 -47q126 0 216.5 27.5t217.5 111.5h6l17 -23v-6q-183 -136 -307 -190t-259 -54 q-93 0 -215 40t-305 135q-287 147 -516 147q-71 0 -129.5 -17.5t-148.5 -68.5h-7l-22 29v6q126 109 272 162q-177 5 -279 209.5t-102 627.5zM311 860q0 -320 18.5 -496.5t56.5 -246.5t106 -70q98 0 138 178.5t40 593.5q0 430 -40.5 621.5t-150.5 191.5q-92 0 -130 -175 t-38 -597z" />
<glyph unicode="R" horiz-adv-x="1024" d="M147 -4v33l3 4q65 19 75 88q15 111 15 719t-15 719q-10 69 -75 88l-3 4v32q57 -4 181 -4q88 0 182 4h17q81 -1 143 -27q70 -30 112 -84t63 -123.5t21 -150.5q0 -160 -75 -269.5t-199 -129.5q98 -7 135 -50t51 -153q47 -346 90 -561q6 -36 29.5 -65t50.5 -37l2 -4v-33 q-57 4 -280 4l-4 4q-63 425 -91 690q-3 36 -8.5 60t-16.5 48t-31.5 36t-49.5 12h-53q0 -626 14 -729q10 -69 76 -88l2 -4v-33q-57 4 -180 4q-124 0 -181 -4zM416 907h55q193 0 193 367q0 340 -191 340h-49q-8 -159 -8 -707z" />
<glyph unicode="S" horiz-adv-x="858" d="M137 61q2 86 2 320h51l5 -2q23 -157 61 -229q28 -54 59 -78.5t72 -24.5q154 0 154 272q0 115 -38 221.5t-138 241.5q-195 264 -195 482q0 225 84.5 332.5t220.5 107.5q73 0 124 -20t93 -62q-2 -86 -2 -324h-51l-4 2q-10 151 -49 234q-24 52 -50.5 75t-66.5 23 q-53 0 -88 -58.5t-35 -139.5q0 -161 34.5 -258t131.5 -222q113 -148 168 -273t55 -241q0 -222 -101.5 -343.5t-248.5 -121.5q-159 0 -248 86z" />
<glyph unicode="T" horiz-adv-x="888" d="M74 1212q12 345 12 471q127 -4 358 -4q232 0 359 4q0 -241 12 -471h-51l-4 2q-27 206 -66 297q-25 58 -53.5 80.5t-77.5 22.5h-22q-9 -179 -9 -774q0 -608 15 -719q10 -69 76 -88l2 -4v-33q-57 4 -181 4q-123 0 -180 -4v33l2 4q66 19 76 88q14 103 14 719q0 615 -8 774 h-22q-49 0 -77.5 -22.5t-53.5 -80.5q-37 -81 -66 -297l-4 -2h-51z" />
<glyph unicode="U" horiz-adv-x="1054" d="M135 1651v32q57 -4 180 -4q124 0 181 4v-32l-2 -4q-66 -19 -76 -88q-6 -42 -10.5 -278t-4.5 -441q0 -332 7 -504q6 -135 46.5 -192.5t131.5 -57.5q74 0 120 58.5t46 189.5l4 506q0 608 -15 719q-10 69 -75 88l-2 4v32q57 -4 135 -4t135 4v-32l-2 -4q-66 -19 -76 -88 q-14 -103 -14 -719v-490q0 -187 -84 -282t-236 -95q-155 0 -232 92q-71 85 -71 242v25q6 182 6 508q0 616 -14 719q-10 69 -76 88z" />
<glyph unicode="V" horiz-adv-x="952" d="M39 1651v32q57 -4 190 -4q89 0 146 4v-32l-2 -4q-38 -18 -38 -73q0 -15 3 -32q58 -395 186 -1012q134 545 191 1018q4 35 -5 62.5t-28 36.5l-2 4v32q57 -4 117 -4q66 0 123 4v-32l-2 -4q-26 -9 -47.5 -36t-30.5 -63q-117 -439 -351 -1579h-36q-74 396 -174.5 867.5 t-161.5 711.5q-21 79 -76 99z" />
<glyph unicode="W" horiz-adv-x="1277" d="M35 1651v32q57 -4 190 -4h580q66 0 123 4v-32l-2 -4q-26 -9 -47.5 -36t-30.5 -63q-13 -49 -29 -119.5t-39.5 -176.5t-38.5 -171q68 -363 107 -551q58 238 113.5 523t82.5 495q4 35 -4.5 62.5t-27.5 36.5l-2 4v32q57 -4 116 -4q66 0 123 4v-32l-2 -4q-26 -9 -47.5 -36 t-30.5 -63q-139 -521 -356 -1579h-37q-100 520 -139 709q-67 -295 -145 -709h-37q-71 379 -174 851t-168 728q-21 79 -76 99zM317 1563q43 -288 209 -1037q38 149 72 316q-76 406 -152 712q-20 82 -75 82q-28 0 -43 -20q-12 -15 -12 -39q0 -7 1 -14zM655 1571 q3 -40 22 -148.5t32 -160.5q35 175 45 301v11q0 66 -47 66q-25 0 -40 -18q-13 -15 -13 -41q0 -5 1 -10z" />
<glyph unicode="X" horiz-adv-x="962" d="M18 -4v33l2 4q62 24 95 94q139 310 268 711q-99 374 -227 714q-16 43 -35.5 63t-48.5 32l-2 4v32q57 -4 194 -4q93 0 150 4v-32l-2 -4q-22 -14 -31 -42t-2 -63q23 -117 119 -424q12 -38 18 -59q133 338 168 489q5 19 5 34q0 43 -34 65l-2 4v32q57 -4 117 -4q62 0 119 4 v-32l-2 -4q-58 -23 -94 -99q-111 -248 -236 -602q122 -376 289 -815q28 -73 90 -98l2 -4v-33q-57 4 -209 4q-92 0 -149 -4v33l2 4q22 14 30.5 41.5t-0.5 62.5q-67 242 -186 584q-153 -429 -203 -590q-5 -19 -5 -35q0 -40 34 -63l2 -4v-33q-57 4 -117 4q-62 0 -119 -4z" />
<glyph unicode="Y" horiz-adv-x="882" d="M33 1651v32q57 -4 194 -4q93 0 150 4v-32l-2 -4q-35 -22 -35 -69q0 -17 4 -36q34 -173 152 -549q113 356 159 555q5 19 5 35q0 42 -33 64l-2 4v32q57 -4 116 -4q62 0 119 4v-32l-2 -4q-58 -23 -94 -99q-55 -122 -145.5 -407.5t-90.5 -343.5q0 -565 15 -676q10 -69 75 -88 l3 -4v-33q-57 4 -181 4q-123 0 -180 -4v33l2 4q66 19 76 88q5 38 7.5 74.5t4.5 182.5t2 417q0 60 -81.5 325.5t-151.5 427.5q-20 44 -39 66.5t-45 32.5z" />
<glyph unicode="Z" horiz-adv-x="983" d="M98 -2q399 1168 535 1616h-123q-83 0 -129.5 -29t-77.5 -90q-51 -94 -76 -281l-4 -2h-51q12 345 12 471q127 -4 363 -4q224 0 330 4l4 -2q-138 -376 -303 -855t-254 -760h198q78 0 122 28.5t75 89.5q52 103 76 281l4 2h51q-12 -230 -12 -471q-127 4 -377 4 q-214 0 -359 -4z" />
<glyph unicode="[" horiz-adv-x="671" d="M279 -4v1687l4 5h243l4 -5v-32l-4 -4h-20q-64 0 -89.5 -26.5t-25.5 -96.5v-1368q0 -70 25.5 -96.5t89.5 -26.5h20l4 -4v-33l-4 -4h-243z" />
<glyph unicode="\" horiz-adv-x="587" d="M-18 1737l2 4l53 16l4 -2l565 -1775l-2 -5l-53 -16l-4 2z" />
<glyph unicode="]" horiz-adv-x="671" d="M141 -4v33l4 4h21q64 0 89.5 26.5t25.5 96.5v1368q0 70 -25.5 96.5t-89.5 26.5h-21l-4 4v32l4 5h244l4 -5v-1687l-4 -4h-244z" />
<glyph unicode="^" horiz-adv-x="782" d="M84 608v6q206 370 305 555h4q120 -228 305 -555v-6l-30 -16l-6 4q-158 299 -269 473h-4q-120 -188 -268 -473l-6 -4z" />
<glyph unicode="_" horiz-adv-x="532" d="M2 -25l4 5h520l4 -5v-49l-4 -4h-520l-4 4v49z" />
<glyph unicode="`" horiz-adv-x="403" d="M33 1466l4 23l143 14l6 -2l131 -198v-7l-67 -24h-6z" />
<glyph unicode="a" horiz-adv-x="757" d="M23 -4v31l2 4q58 19 75 92q92 390 187 1003l4 9q84 51 137 104h18q73 -510 195 -1116q13 -71 70 -92l2 -4v-31q-57 4 -154 4q-78 0 -135 -4v31l2 4q46 11 46 51q0 5 -1 10q-19 173 -53 357q-54 4 -96 4q-24 0 -78 -4q-30 -154 -51 -326q-3 -17 -3 -31q0 -48 29 -61l2 -4 v-31q-37 4 -106 4q-55 0 -92 -4zM252 510q46 -4 74 -4q30 0 84 4q-25 181 -72 459q-49 -194 -86 -459z" />
<glyph unicode="b" horiz-adv-x="806" d="M125 -4v31l2 4q24 11 33.5 30.5t15.5 61.5q14 103 14 471t-14 471q-6 42 -15.5 60.5t-33.5 31.5l-2 4v31q57 -4 139 -4q80 0 182 4h13q95 0 161 -70q70 -75 70 -190q0 -107 -54 -194.5t-142 -121.5q100 -20 155.5 -95t55.5 -183q-1 -148 -93 -248q-87 -94 -208 -94h-15 q-90 4 -125 4q-82 0 -139 -4zM338 582q0 -324 10 -449q3 -40 13 -56t40 -16q53 0 88 61.5t35 180.5q0 76 -15.5 137t-52.5 101.5t-91 40.5h-27zM338 635h27q70 0 107.5 67t37.5 191q0 115 -30 174t-105 59q-21 0 -29 -4q-8 -159 -8 -487z" />
<glyph unicode="c" horiz-adv-x="714" d="M100 569q0 164 28.5 289.5t78 200t112.5 112t136 37.5q104 0 166 -55q-3 -76 -3 -207h-38l-5 2q-5 61 -11 89.5t-21 52.5q-12 20 -37 33.5t-53 13.5q-172 0 -172 -547q0 -277 45 -408t120 -131q67 0 91 43q26 43 34 146l4 2h39q0 -156 2 -207q-69 -55 -186 -55 q-147 0 -238.5 154t-91.5 435z" />
<glyph unicode="d" horiz-adv-x="878" d="M125 -4v31l2 4q24 11 33.5 30.5t15.5 61.5q14 103 14 471t-14 471q-6 42 -15.5 60.5t-33.5 31.5l-2 4v31q57 -4 139 -4t156 4q9 1 18 1q150 -1 242 -143q98 -150 98 -401q0 -138 -21.5 -251.5t-57.5 -188t-83 -125.5q-48 -50 -98 -70q-44 -18 -89 -18h-13q-106 4 -152 4 q-82 0 -139 -4zM338 594q0 -352 8 -461q3 -39 20 -55.5t54 -16.5q68 0 106 53.5t55 178t17 350.5q0 255 -47 372.5t-143 117.5q-34 0 -62 -7q-8 -57 -8 -532z" />
<glyph unicode="e" horiz-adv-x="751" d="M125 -4v31l2 4q24 11 33.5 30.5t15.5 61.5q14 103 14 471t-14 471q-6 42 -15.5 60.5t-33.5 31.5l-2 4v31q57 -4 139 -4q227 0 354 4q0 -79 13 -328h-39l-4 2q-5 62 -16 103.5t-35 81.5q-24 42 -62 58.5t-100 16.5h-29q-1 -22 -3 -52.5t-2.5 -45t-1.5 -62.5t-1 -126v-215 h27q33 0 53 11t35 40q16 33 23 59t11 76l5 2h38q-4 -94 -4 -215t4 -215h-38l-5 2q-4 50 -11 76t-23 59q-15 29 -35 40t-53 11h-27q0 -329 8 -438q3 -39 20 -55.5t54 -16.5q35 0 57 12.5t49 51.5q23 33 37.5 76t30.5 121l4 2h39q-12 -230 -12 -328q-121 4 -361 4 q-82 0 -139 -4z" />
<glyph unicode="f" horiz-adv-x="714" d="M125 -4v31l2 4q24 11 33.5 30.5t15.5 61.5q14 103 14 471t-14 471q-6 42 -15.5 60.5t-33.5 31.5l-2 4v31q57 -4 139 -4q227 0 354 4q0 -79 13 -328h-39l-4 2q-5 62 -16 103.5t-35 81.5q-24 42 -62 58.5t-100 16.5h-29q-1 -22 -3 -52.5t-2.5 -45t-1.5 -62.5t-1 -126v-215 h27q33 0 53 11t35 40q16 33 23 59t11 76l5 2h38q-4 -94 -4 -215t4 -215h-38l-5 2q-4 50 -11 76t-23 59q-15 29 -35 40t-53 11h-27q0 -345 14 -448q6 -42 15.5 -61.5t33.5 -30.5l2 -4v-31q-57 4 -139 4t-139 -4z" />
<glyph unicode="g" horiz-adv-x="790" d="M100 569q0 134 20.5 242.5t55.5 181t82.5 122t100.5 71.5t112 22q106 0 168 -55q-2 -51 -2 -207h-39l-4 2q-7 100 -33 142q-12 20 -38 33.5t-54 13.5q-188 0 -188 -547q0 -150 13 -260.5t35 -170t47.5 -87t55.5 -27.5q68 0 68 51q0 209 -13 305q-6 40 -16.5 57t-36.5 27 l-2 4v31q57 -4 141 -4q62 0 105 4v-31l-2 -4q-27 -27 -29 -92q-4 -59 -4 -151v-138q0 -29 6 -41l2 -6v-20q-111 -57 -241 -57q-137 0 -223.5 152t-86.5 437z" />
<glyph unicode="h" horiz-adv-x="897" d="M125 -4v31l2 4q24 11 33.5 30.5t15.5 61.5q14 103 14 471t-14 471q-6 42 -15.5 60.5t-33.5 31.5l-2 4v31q57 -4 139 -4t139 4v-31l-2 -4q-24 -13 -33.5 -31.5t-15.5 -60.5q-14 -103 -14 -444q58 -5 111 -5t110 5q0 341 -14 444q-6 42 -15.5 60.5t-33.5 31.5l-2 4v31 q57 -4 139 -4t139 4v-31l-2 -4q-24 -13 -33.5 -31.5t-15.5 -60.5q-14 -103 -14 -471t14 -471q6 -42 15.5 -61.5t33.5 -30.5l2 -4v-31q-57 4 -139 4t-139 -4v31l2 4q24 11 33.5 30.5t15.5 61.5q14 100 14 436q-78 4 -110 4q-33 0 -111 -4q0 -336 14 -436q6 -42 15.5 -61.5 t33.5 -30.5l2 -4v-31q-57 4 -139 4t-139 -4z" />
<glyph unicode="i" horiz-adv-x="528" d="M125 -4v31l2 4q24 11 33.5 30.5t15.5 61.5q14 103 14 471t-14 471q-6 42 -15.5 60.5t-33.5 31.5l-2 4v31q57 -4 139 -4t139 4v-31l-2 -4q-24 -13 -33.5 -31.5t-15.5 -60.5q-14 -103 -14 -471t14 -471q6 -42 15.5 -61.5t33.5 -30.5l2 -4v-31q-57 4 -139 4t-139 -4z" />
<glyph unicode="j" horiz-adv-x="546" d="M88 -154l2 7q66 37 96.5 113t30.5 208v420q0 368 -14 471q-6 42 -15.5 60.5t-33.5 31.5l-2 4v31q57 -4 139 -4t139 4v-31l-2 -4q-24 -13 -33.5 -31.5t-15.5 -60.5q-14 -103 -14 -471q0 -254 6 -391v-22q0 -137 -69 -229q-75 -100 -198 -136l-4 2z" />
<glyph unicode="k" horiz-adv-x="808" d="M125 -4v31l2 4q24 11 33.5 30.5t15.5 61.5q14 103 14 471t-14 471q-6 42 -15.5 60.5t-33.5 31.5l-2 4v31q57 -4 139 -4t139 4v-31l-2 -4q-24 -13 -33.5 -31.5t-15.5 -60.5q-14 -103 -14 -463q136 245 227 475q12 29 10 49t-22 31l-2 4v31q35 -4 88 -4q64 0 121 4v-31 l-2 -4q-63 -22 -105 -94q-99 -174 -196 -385q133 -359 231 -553q40 -79 107 -94l2 -4v-31q-57 4 -260 4l-5 4q-47 145 -82.5 241.5t-111.5 282.5q0 -305 14 -405q6 -42 15.5 -61.5t33.5 -30.5l2 -4v-31q-57 4 -139 4t-139 -4z" />
<glyph unicode="l" horiz-adv-x="696" d="M125 -4v31l2 4q24 11 33.5 30.5t15.5 61.5q14 103 14 471t-14 471q-6 42 -15.5 60.5t-33.5 31.5l-2 4v31q57 -4 139 -4t139 4v-31l-2 -4q-24 -13 -33.5 -31.5t-15.5 -60.5q-14 -103 -14 -471q0 -352 8 -461q3 -39 20 -55.5t54 -16.5q35 0 57 12.5t49 51.5q23 33 37.5 76 t30.5 121l4 2h39q-12 -230 -12 -328q-121 4 -361 4q-82 0 -139 -4z" />
<glyph unicode="m" horiz-adv-x="1087" d="M119 -4v31l2 4q24 11 33.5 30.5t15.5 61.5q14 103 14 471t-14 471q-6 42 -15.5 60.5t-33.5 31.5l-2 4v31q57 -4 139 -4h74q19 -164 200 -805q125 508 173 805h118q83 0 140 4v-31l-2 -4q-24 -13 -34 -32t-16 -60q-14 -103 -14 -471t14 -471q6 -42 16 -61t34 -31l2 -4v-31 q-57 4 -140 4q-82 0 -139 -4v31l2 4q24 11 33.5 30.5t15.5 61.5q15 111 15 471q0 382 6 471q-133 -522 -246 -1088l-4 -2h-23l-4 2q-120 533 -225 906q4 -82 4 -289q0 -368 14 -471q6 -42 16 -61t34 -31l2 -4v-31q-37 4 -103 4q-65 0 -102 -4z" />
<glyph unicode="n" horiz-adv-x="823" d="M119 -4v31l2 4q24 11 33.5 30.5t15.5 61.5q14 103 14 471t-14 471q-6 42 -15.5 60.5t-33.5 31.5l-2 4v31q57 -4 139 -4h53q24 -82 56 -165t133 -325q53 -133 80 -231q-5 79 -5 127q0 368 -14 471q-6 42 -15.5 60.5t-33.5 31.5l-2 4v31q37 -4 102 -4q66 0 103 4v-31l-2 -4 q-24 -13 -33.5 -31.5t-15.5 -60.5q-15 -111 -15 -471q0 -443 4 -619h-24l-4 2q-182 462 -371 906q4 -72 4 -289q0 -368 14 -471q6 -42 16 -61t34 -31l2 -4v-31q-37 4 -103 4q-65 0 -102 -4z" />
<glyph unicode="o" horiz-adv-x="815" d="M100 569q0 322 81.5 480.5t228.5 158.5q98 0 168.5 -80t103.5 -209t33 -290q0 -320 -84.5 -484.5t-224.5 -164.5q-148 0 -227 151t-79 438zM281 590q0 -296 29 -418.5t100 -122.5q48 0 74.5 52t38.5 172t12 337q0 273 -27.5 400t-99.5 127q-49 0 -76 -48.5t-39 -165 t-12 -333.5z" />
<glyph unicode="p" horiz-adv-x="741" d="M125 -4v31l2 4q24 11 33.5 30.5t15.5 61.5q14 103 14 471t-14 471q-6 42 -15.5 60.5t-33.5 31.5l-2 4v31q57 -4 139 -4q80 0 182 4h11q97 0 166 -80q73 -85 73 -213t-90.5 -221t-220.5 -111q-16 22 -18 33q-3 14 14 21q66 24 100.5 79t34.5 162q0 264 -141 264 q-21 0 -29 -4q-8 -125 -8 -514q0 -382 14 -485q6 -42 15.5 -61.5t33.5 -30.5l2 -4v-31q-57 4 -139 4t-139 -4z" />
<glyph unicode="q" horiz-adv-x="796" d="M100 569q0 322 81.5 480.5t228.5 158.5q98 0 168.5 -80t103.5 -209t33 -290q0 -320 -84.5 -484.5t-224.5 -164.5q-148 0 -227 151t-79 438zM281 590q0 -296 29 -418.5t100 -122.5q48 0 74.5 52t38.5 172t12 337q0 273 -27.5 400t-99.5 127q-49 0 -76 -48.5t-39 -165 t-12 -333.5zM373 -113l16 -20h6q44 24 82 24q51 0 105 -51q38 -35 67 -49t66 -14q54 0 97 25t99 85l-16 17h-8q-55 -37 -119 -37q-57 0 -113 53q-31 30 -57.5 41.5t-65.5 11.5q-64 0 -159 -86z" />
<glyph unicode="r" horiz-adv-x="794" d="M125 -4v31l2 4q24 11 33.5 30.5t15.5 61.5q14 103 14 471t-14 471q-6 42 -15.5 60.5t-33.5 31.5l-2 4v31q57 -4 139 -4q80 0 182 4h13q95 0 159 -70q70 -75 70 -190q0 -105 -52 -179.5t-142 -109.5q41 -11 71.5 -43.5t36.5 -73.5q26 -175 76 -403q15 -64 72 -92l2 -4v-31 q-57 4 -238 4q-40 289 -86 545q-11 63 -63 63h-27q0 -382 14 -485q6 -42 15.5 -61.5t33.5 -30.5l2 -4v-31q-57 4 -139 4t-139 -4zM338 662h27q151 0 151 231q0 114 -32.5 173.5t-108.5 59.5q-21 0 -29 -4q-8 -159 -8 -460z" />
<glyph unicode="s" horiz-adv-x="651" d="M98 20q4 102 4 218h39l4 -2q11 -91 39 -138q28 -51 84 -51q60 0 85.5 42.5t25.5 133.5q0 78 -26.5 153t-98.5 171t-105.5 177t-33.5 173q0 139 68.5 225t176.5 86q47 0 91 -12.5t67 -32.5q-2 -51 -2 -217h-39l-4 2q-7 96 -35 142q-28 47 -88 47q-46 0 -75 -37.5 t-29 -104.5q0 -74 29.5 -140t97.5 -159q90 -122 130 -211.5t40 -167.5q0 -161 -77.5 -251.5t-201.5 -90.5q-99 0 -166 45z" />
<glyph unicode="t" horiz-adv-x="712" d="M59 864q1 35 7 159t6 169q104 -4 284 -4q179 0 285 4q0 -98 12 -328h-39l-4 2q-10 136 -45 197q-38 67 -106 67h-23q-6 -119 -6 -536q0 -368 14 -471q6 -42 16 -61t34 -31l2 -4v-31q-57 4 -140 4q-82 0 -139 -4v31l2 4q24 11 33.5 30.5t15.5 61.5q15 111 15 471 q0 397 -7 536h-22q-38 0 -62 -15.5t-45 -51.5q-35 -61 -45 -197l-4 -2h-39z" />
<glyph unicode="u" horiz-adv-x="827" d="M111 1161v31q57 -4 141 -4t141 4v-31l-2 -4q-24 -13 -33.5 -31.5t-15.5 -60.5q-14 -103 -14 -471q0 -289 4 -377q6 -172 131 -172q60 0 90.5 47t30.5 119v383q0 360 -15 471q-6 42 -15.5 60.5t-33.5 31.5l-2 4v31q37 -4 103 -4q65 0 102 4v-31l-2 -4q-24 -13 -33.5 -31.5 t-15.5 -60.5q-15 -111 -15 -471q0 -262 5 -350q1 -11 1 -21q0 -111 -59 -174q-64 -69 -188 -69q-119 0 -183 74q-61 70 -61 181v11q4 133 4 348q0 368 -14 471q-6 42 -15.5 60.5t-33.5 31.5z" />
<glyph unicode="v" horiz-adv-x="727" d="M20 1161v31q57 -4 154 -4q78 0 135 4v-31l-2 -4q-49 -12 -49 -53v-8q6 -70 30 -193.5t111 -525.5q129 570 144 688q2 14 2 27q0 52 -31 65l-2 4v31q37 -4 106 -4q56 0 93 4v-31l-2 -4q-57 -18 -76 -92q-112 -416 -260 -1092l-4 -4h-37l-4 4q-114 603 -236 1092 q-16 72 -69 92z" />
<glyph unicode="w" horiz-adv-x="964" d="M20 1161v31q113 -4 404 -4q203 0 293 4v-31l-2 -4q-27 -9 -40 -28t-24 -64l-84 -324q22 -111 74 -350q131 577 143 674q6 39 2.5 61.5t-22.5 30.5l-2 4v31q37 -4 94 -4q55 0 92 4v-31l-2 -4q-60 -19 -76 -92q-140 -564 -249 -1092l-5 -4h-36l-5 4l-83 471l-111 -471 l-4 -4h-37l-4 4q-110 584 -244 1092q-11 40 -26 61t-43 31zM246 1102q16 -98 166 -746l53 228q-85 391 -115 512q-7 28 -24 43.5t-35 15.5q-22 -1 -35 -15q-11 -12 -11 -29q0 -5 1 -9zM541 854q33 177 39 233q1 8 1 15q0 23 -10 38q-13 19 -36 19q-18 0 -29 -12 q-10 -11 -10 -30q0 -32 45 -263z" />
<glyph unicode="x" horiz-adv-x="737" d="M4 -4v31l2 4q31 10 51.5 27t36.5 51q145 319 211 483q-97 299 -176 487q-15 36 -33 53t-49 25l-2 4v31q57 -4 160 -4q74 0 131 4v-31l-2 -4q-47 -12 -47 -46q0 -7 2 -15q22 -90 108 -336q89 228 111 315q9 40 3.5 57t-28.5 25l-2 4v31q37 -4 105 -4q57 0 94 4v-31l-2 -4 q-30 -10 -48 -26.5t-32 -51.5q-86 -197 -164 -432q88 -266 197 -538q14 -35 33 -50t53 -28l2 -4v-31q-57 4 -166 4q-82 0 -139 -4v31l2 4q39 10 39 44q0 8 -2 17q-28 135 -115 389q-98 -223 -141 -358q-8 -25 -8 -44q0 -35 28 -48l2 -4v-31q-37 4 -108 4q-70 0 -107 -4z" />
<glyph unicode="y" horiz-adv-x="690" d="M23 1161v31q57 -4 153 -4q74 0 131 4v-31l-2 -4q-43 -11 -43 -45q0 -8 2 -16q48 -190 125 -416q100 288 121 385q4 20 4 36q0 42 -31 56l-2 4v31q37 -4 105 -4q55 0 92 4v-31l-2 -4q-31 -10 -49 -26t-31 -52q-120 -316 -170 -491q-14 -47 -14 -66q0 -299 14 -399 q6 -42 15.5 -61.5t33.5 -30.5l2 -4v-31q-57 4 -139 4t-139 -4v31l2 4q24 11 33.5 30.5t15.5 61.5q14 100 14 403q0 31 -8 64q-48 181 -156 489q-13 36 -29 51t-46 27z" />
<glyph unicode="z" horiz-adv-x="788" d="M78 0q204 510 399 1126h-84q-62 0 -100 -16.5t-62 -58.5q-24 -40 -35 -81.5t-16 -103.5l-4 -2h-39q1 35 7 159t6 169q127 -4 272 -4q166 0 262 4l4 -4q-201 -511 -401 -1127h137q62 0 100 17t62 59q24 40 35 81.5t16 103.5l4 2h39q-12 -230 -12 -328q-127 4 -301 4 q-133 0 -285 -4z" />
<glyph unicode="{" horiz-adv-x="692" d="M211 823v25l4 4q150 27 135 201l-33 389q-10 123 63.5 201t178.5 86l4 -5v-30l-4 -4q-78 -22 -109.5 -77t-21.5 -155l33 -336q22 -220 -172 -282q190 -63 168 -283l-33 -336q-10 -99 23.5 -154t111.5 -77l4 -4v-31l-4 -4q-105 8 -180.5 86t-65.5 201l33 389 q8 85 -23.5 132t-107.5 60z" />
<glyph unicode="|" horiz-adv-x="790" d="M365 -45v1769l4 5h53l4 -5v-1769l-4 -4h-53z" />
<glyph unicode="}" horiz-adv-x="692" d="M129 -14l4 4q78 22 109.5 76.5t21.5 154.5l-33 336q-11 110 30 180t142 103q-100 31 -139 101t-28 181l32 336q10 99 -23.5 154.5t-111.5 77.5l-4 4v30l4 5q105 -8 180.5 -86t65.5 -201l-33 -389q-8 -86 23.5 -133t107.5 -60l4 -4v-25l-4 -4q-150 -27 -135 -200l33 -389 q10 -123 -63.5 -201t-178.5 -86l-4 4v31z" />
<glyph unicode="~" horiz-adv-x="874" d="M74 709q49 92 92.5 133t99.5 41q44 0 86.5 -27.5t104.5 -89.5q72 -72 103 -93.5t67 -21.5q37 0 69 30t76 107l6 3l21 -11l2 -6q-49 -92 -93 -133t-100 -41q-45 0 -87 27t-103 90q-72 72 -103 93t-67 21q-37 0 -69.5 -30t-76.5 -107l-6 -2l-20 10z" />
<glyph unicode="&#xa5;" d="M57 1651v32q57 -4 195 -4q92 0 149 4v-32l-2 -4q-46 -29 -30 -105q44 -222 151 -586q135 484 160 592q17 69 -29 99l-2 4v32q57 -4 117 -4q62 0 119 4v-32l-2 -4q-59 -23 -95 -99q-36 -84 -99 -270.5t-103 -329.5h168l4 -4v-49l-4 -4h-185q-18 -67 -18 -94v-11h203l4 -4 v-49l-4 -4h-201q0 -508 14 -608q10 -69 76 -88l2 -4v-33q-57 4 -180 4t-180 -4v33l2 4q65 19 75 88q15 107 15 608h-189l-4 4v49l4 4h191v9q0 25 -19 96h-172l-4 4v49l4 4h156q-35 136 -93.5 311.5t-107.5 288.5q-20 44 -39 66.5t-45 32.5z" />
<glyph unicode="&#xad;" horiz-adv-x="591" d="M106 494q14 36 23 75q3 9 14 9h283q33 0 51 4l8 -7q-12 -30 -22 -75q-5 -8 -14 -8h-283q-28 0 -51 -5z" />
<glyph unicode="&#x2000;" horiz-adv-x="954" />
<glyph unicode="&#x2001;" horiz-adv-x="1909" />
<glyph unicode="&#x2002;" horiz-adv-x="954" />
<glyph unicode="&#x2003;" horiz-adv-x="1909" />
<glyph unicode="&#x2004;" horiz-adv-x="636" />
<glyph unicode="&#x2005;" horiz-adv-x="477" />
<glyph unicode="&#x2006;" horiz-adv-x="318" />
<glyph unicode="&#x2007;" horiz-adv-x="318" />
<glyph unicode="&#x2008;" horiz-adv-x="238" />
<glyph unicode="&#x2009;" horiz-adv-x="381" />
<glyph unicode="&#x200a;" horiz-adv-x="106" />
<glyph unicode="&#x2010;" horiz-adv-x="591" d="M106 494q14 36 23 75q3 9 14 9h283q33 0 51 4l8 -7q-12 -30 -22 -75q-5 -8 -14 -8h-283q-28 0 -51 -5z" />
<glyph unicode="&#x2011;" horiz-adv-x="591" d="M106 494q14 36 23 75q3 9 14 9h283q33 0 51 4l8 -7q-12 -30 -22 -75q-5 -8 -14 -8h-283q-28 0 -51 -5z" />
<glyph unicode="&#x2012;" horiz-adv-x="591" d="M106 494q14 36 23 75q3 9 14 9h283q33 0 51 4l8 -7q-12 -30 -22 -75q-5 -8 -14 -8h-283q-28 0 -51 -5z" />
<glyph unicode="&#x2013;" horiz-adv-x="1236" d="M106 494q38 36 62 75q8 9 38 9h765q89 0 137 4l22 -7q-32 -30 -59 -75q-14 -8 -38 -8h-765q-76 0 -138 -5z" />
<glyph unicode="&#x2014;" horiz-adv-x="2260" d="M106 494q76 36 124 75q16 9 76 9h1529q179 0 276 4l43 -7q-65 -30 -119 -75q-27 -8 -76 -8h-1529q-151 0 -275 -5z" />
<glyph unicode="&#x2018;" horiz-adv-x="430" d="M158 1513q0 76 54 150.5t138 128.5l21 -23v-4q-45 -74 -59.5 -119t-14.5 -106q0 -40 15 -71.5t42 -43.5l4 -4v-35q-30 -12 -77 -12q-55 0 -89 34.5t-34 104.5z" />
<glyph unicode="&#x2019;" horiz-adv-x="430" d="M59 1397v4q45 72 59.5 117.5t14.5 107.5q0 39 -15.5 71t-41.5 44l-4 4v35q40 12 78 12q53 0 87.5 -34.5t34.5 -104.5q0 -78 -54 -152.5t-138 -126.5z" />
<glyph unicode="&#x201c;" horiz-adv-x="716" d="M158 1513q0 76 54 150.5t138 128.5l21 -23v-4q-45 -74 -59.5 -119t-14.5 -106q0 -40 15 -71.5t42 -43.5l4 -4v-35q-30 -12 -77 -12q-55 0 -89 34.5t-34 104.5zM444 1513q0 76 54.5 150.5t138.5 128.5l20 -23v-4q-45 -73 -59 -118t-14 -107q0 -40 15 -71.5t42 -43.5l4 -4 v-35q-30 -12 -78 -12q-55 0 -89 34.5t-34 104.5z" />
<glyph unicode="&#x201d;" horiz-adv-x="716" d="M59 1397v4q45 72 59.5 117.5t14.5 107.5q0 39 -15.5 71t-41.5 44l-4 4v35q40 12 78 12q53 0 87.5 -34.5t34.5 -104.5q0 -78 -54 -152.5t-138 -126.5zM346 1397v4q45 72 59.5 117.5t14.5 107.5q0 39 -16 71t-42 44l-4 4v35q40 12 78 12q54 0 88.5 -35t34.5 -104 q0 -78 -54 -152.5t-138 -126.5z" />
<glyph unicode="&#x202f;" horiz-adv-x="381" />
<glyph unicode="&#x205f;" horiz-adv-x="477" />
<glyph unicode="&#x25fc;" horiz-adv-x="1187" d="M0 0v1188h1188v-1188h-1188z" />
</font>
</defs>
</svg>
